{
  "accessors": [
    {
      "bufferView": 2,
      "componentType": 5126,
      "count": 843,
      "max": [
        5.1973280906677246,
        3.4984610080718994,
        3.1516351699829102
      ],
      "min": [
        0,
        0,
        0
      ],
      "type": "VEC3"
    },
    {
      "bufferView": 2,
      "byteOffset": 10116,
      "componentType": 5126,
      "count": 843,
      "max": [
        0.99956345558166504,
        0.99960237741470337,
        1
      ],
      "min": [
        -0.99956345558166504,
        -1,
        -1
      ],
      "type": "VEC3"
    },
    {
      "bufferView": 3,
      "componentType": 5126,
      "count": 843,
      "max": [
        0.9999992847442627,
        0.99980580806732178,
        0.99991291761398315,
        1
      ],
      "min": [
        -0.99999964237213135,
        -0.99996089935302734,
        -0.54559904336929321,
        1
      ],
      "type": "VEC4"
    },
    {
      "bufferView": 1,
      "componentType": 5126,
      "count": 843,
      "max": [
        4.234839916229248,
        3.7941210269927979
      ],
      "min": [
        -3.2553191184997559,
        -3.175015926361084
      ],
      "type": "VEC2"
    },
    {
      "bufferView": 0,
      "componentType": 5125,
      "count": 3810,
      "max": [
        842
      ],
      "min": [
        0
      ],
      "type": "SCALAR"
    },
    {
      "bufferView": 2,
      "byteOffset": 20232,
      "componentType": 5126,
      "count": 384,
      "max": [
        4.0638809204101562,
        1.5718311071395874,
        2.0252230167388916
      ],
      "min": [
        1.1334470510482788,
        1.3678981065750122,
        0.77731204032897949
      ],
      "type": "VEC3"
    },
    {
      "bufferView": 2,
      "byteOffset": 24840,
      "componentType": 5126,
      "count": 384,
      "max": [
        1,
        1,
        1
      ],
      "min": [
        -1,
        -0,
        -1
      ],
      "type": "VEC3"
    },
    {
      "bufferView": 3,
      "byteOffset": 13488,
      "componentType": 5126,
      "count": 384,
      "max": [
        0,
        0,
        0,
        1
      ],
      "min": [
        0,
        0,
        0,
        1
      ],
      "type": "VEC4"
    },
    {
      "bufferView": 0,
      "byteOffset": 15240,
      "componentType": 5125,
      "count": 1152,
      "max": [
        383
      ],
      "min": [
        0
      ],
      "type": "SCALAR"
    },
    {
      "bufferView": 2,
      "byteOffset": 29448,
      "componentType": 5126,
      "count": 48,
      "max": [
        4.0121331214904785,
        0.37073111534118652,
        0.17181396484375
      ],
      "min": [
        1.1851950883865356,
        0.26905512809753418,
        0.10331499576568604
      ],
      "type": "VEC3"
    },
    {
      "bufferView": 2,
      "byteOffset": 30024,
      "componentType": 5126,
      "count": 48,
      "max": [
        1,
        1,
        1
      ],
      "min": [
        -1,
        -1,
        -1
      ],
      "type": "VEC3"
    },
    {
      "bufferView": 3,
      "byteOffset": 19632,
      "componentType": 5126,
      "count": 48,
      "max": [
        0,
        0,
        0,
        1
      ],
      "min": [
        0,
        0,
        0,
        1
      ],
      "type": "VEC4"
    },
    {
      "bufferView": 0,
      "byteOffset": 19848,
      "componentType": 5125,
      "count": 72,
      "max": [
        47
      ],
      "min": [
        0
      ],
      "type": "SCALAR"
    },
    {
      "bufferView": 2,
      "byteOffset": 30600,
      "componentType": 5126,
      "count": 3252,
      "max": [
        5.146873950958252,
        7.3179798126220703,
        2.9234929084777832
      ],
      "min": [
        0.050454139709472656,
        0.12411308288574219,
        1.0728836059570312e-06
      ],
      "type": "VEC3"
    },
    {
      "bufferView": 2,
      "byteOffset": 69624,
      "componentType": 5126,
      "count": 3252,
      "max": [
        0.99979192018508911,
        1,
        1
      ],
      "min": [
        -0.99685686826705933,
        -1,
        -1
      ],
      "type": "VEC3"
    },
    {
      "bufferView": 3,
      "byteOffset": 20400,
      "componentType": 5126,
      "count": 3252,
      "max": [
        1,
        0.99678689241409302,
        0.56896305084228516,
        1
      ],
      "min": [
        -0.080099307000637054,
        -0.99664700031280518,
        -0.57849317789077759,
        1
      ],
      "type": "VEC4"
    },
    {
      "bufferView": 0,
      "byteOffset": 20136,
      "componentType": 5125,
      "count": 17769,
      "max": [
        3251
      ],
      "min": [
        0
      ],
      "type": "SCALAR"
    },
    {
      "bufferView": 2,
      "byteOffset": 108648,
      "componentType": 5126,
      "count": 3017,
      "max": [
        5.036747932434082,
        3.5053470134735107,
        3.0646569728851318
      ],
      "min": [
        0.16058015823364258,
        0.71909904479980469,
        0.041146993637084961
      ],
      "type": "VEC3"
    },
    {
      "bufferView": 2,
      "byteOffset": 144852,
      "componentType": 5126,
      "count": 3017,
      "max": [
        0.99274331331253052,
        0.99999117851257324,
        0.99948149919509888
      ],
      "min": [
        -0.99274331331253052,
        -0.50217890739440918,
        -0.99371874332427979
      ],
      "type": "VEC3"
    },
    {
      "bufferView": 3,
      "byteOffset": 72432,
      "componentType": 5126,
      "count": 3017,
      "max": [
        0.99695038795471191,
        0.998252272605896,
        0.99897563457489014,
        1
      ],
      "min": [
        -0.99658876657485962,
        -0.99119442701339722,
        -0.99925726652145386,
        -1
      ],
      "type": "VEC4"
    },
    {
      "bufferView": 1,
      "byteOffset": 6744,
      "componentType": 5126,
      "count": 3017,
      "max": [
        52.972766876220703,
        66.958694458007812
      ],
      "min": [
        -71.199234008789062,
        -49.928642272949219
      ],
      "type": "VEC2"
    },
    {
      "bufferView": 0,
      "byteOffset": 91212,
      "componentType": 5125,
      "count": 15360,
      "max": [
        3016
      ],
      "min": [
        0
      ],
      "type": "SCALAR"
    },
    {
      "bufferView": 2,
      "byteOffset": 181056,
      "componentType": 5126,
      "count": 6,
      "max": [
        4.4357810020446777,
        1.0381780862808228,
        2.3404479026794434
      ],
      "min": [
        0.76154708862304688,
        1.0381780862808228,
        0.49200999736785889
      ],
      "type": "VEC3"
    },
    {
      "bufferView": 2,
      "byteOffset": 181128,
      "componentType": 5126,
      "count": 6,
      "max": [
        0,
        1,
        0
      ],
      "min": [
        0,
        1,
        0
      ],
      "type": "VEC3"
    },
    {
      "bufferView": 3,
      "byteOffset": 120704,
      "componentType": 5126,
      "count": 6,
      "max": [
        0,
        0,
        0,
        1
      ],
      "min": [
        0,
        0,
        0,
        1
      ],
      "type": "VEC4"
    },
    {
      "bufferView": 0,
      "byteOffset": 152652,
      "componentType": 5125,
      "count": 12,
      "max": [
        5
      ],
      "min": [
        0
      ],
      "type": "SCALAR"
    },
    {
      "bufferView": 2,
      "byteOffset": 181200,
      "componentType": 5126,
      "count": 2014,
      "max": [
        5.0418472290039062,
        8.2688169479370117,
        2.9881789684295654
      ],
      "min": [
        0.15548110008239746,
        0.17301106452941895,
        0.27509903907775879
      ],
      "type": "VEC3"
    },
    {
      "bufferView": 2,
      "byteOffset": 205368,
      "componentType": 5126,
      "count": 2014,
      "max": [
        0.99908357858657837,
        0.9999006986618042,
        0.99482512474060059
      ],
      "min": [
        -0.99908357858657837,
        -0.98856514692306519,
        -0.99424844980239868
      ],
      "type": "VEC3"
    },
    {
      "bufferView": 3,
      "byteOffset": 120800,
      "componentType": 5126,
      "count": 2014,
      "max": [
        0.99996232986450195,
        0.99998259544372559,
        0.99997484683990479,
        1
      ],
      "min": [
        -0.99984663724899292,
        -0.99956417083740234,
        -0.99997824430465698,
        1
      ],
      "type": "VEC4"
    },
    {
      "bufferView": 1,
      "byteOffset": 30880,
      "componentType": 5126,
      "count": 2014,
      "max": [
        4.3665809631347656,
        3.9033811092376709
      ],
      "min": [
        -3.3665809631347656,
        -3.0094239711761475
      ],
      "type": "VEC2"
    },
    {
      "bufferView": 0,
      "byteOffset": 152700,
      "componentType": 5125,
      "count": 10656,
      "max": [
        2013
      ],
      "min": [
        0
      ],
      "type": "SCALAR"
    },
    {
      "bufferView": 2,
      "byteOffset": 229536,
      "componentType": 5126,
      "count": 72,
      "max": [
        2.7878999710083008,
        1.99310302734375,
        2.8782429695129395
      ],
      "min": [
        2.4094281196594238,
        1.6108940839767456,
        2.7813549041748047
      ],
      "type": "VEC3"
    },
    {
      "bufferView": 2,
      "byteOffset": 230400,
      "componentType": 5126,
      "count": 72,
      "max": [
        0.99460852146148682,
        0.99114221334457397,
        0.9919922947883606
      ],
      "min": [
        -0.99460852146148682,
        -0.99846440553665161,
        -0.9919922947883606
      ],
      "type": "VEC3"
    },
    {
      "bufferView": 3,
      "byteOffset": 153024,
      "componentType": 5126,
      "count": 72,
      "max": [
        0,
        0,
        0,
        1
      ],
      "min": [
        0,
        0,
        0,
        1
      ],
      "type": "VEC4"
    },
    {
      "bufferView": 0,
      "byteOffset": 195324,
      "componentType": 5125,
      "count": 204,
      "max": [
        71
      ],
      "min": [
        0
      ],
      "type": "SCALAR"
    }
  ],
  "asset": {
    "extras": {
      "author": "Eternal Realm (https://sketchfab.com/EternalRealm)",
      "license": "CC-BY-4.0 (http://creativecommons.org/licenses/by/4.0/)",
      "source": "https://sketchfab.com/models/d4410b21c79e42488ef0e9a8e6c270a7",
      "title": "Google Daydream"
    },
    "generator": "Sketchfab-3.18.6",
    "version": "2.0"
  },
  "bufferViews": [
    {
      "buffer": 0,
      "byteLength": 196140,
      "byteOffset": 0,
      "name": "floatBufferViews",
      "target": 34963
    },
    {
      "buffer": 0,
      "byteLength": 46992,
      "byteOffset": 196140,
      "byteStride": 8,
      "name": "floatBufferViews",
      "target": 34962
    },
    {
      "buffer": 0,
      "byteLength": 231264,
      "byteOffset": 243132,
      "byteStride": 12,
      "name": "floatBufferViews",
      "target": 34962
    },
    {
      "buffer": 0,
      "byteLength": 154176,
      "byteOffset": 474396,
      "byteStride": 16,
      "name": "floatBufferViews",
      "target": 34962
    }
  ],
  "buffers": [
    {
      "byteLength": 628572,
      "uri": "scene.bin"
    }
  ],
  "images": [
    {
      "uri": "textures/base_baseColor.png"
    },
    {
      "uri": "textures/strap_baseColor.png"
    },
    {
      "uri": "textures/material_baseColor.png"
    }
  ],
  "materials": [
    {
      "doubleSided": true,
      "emissiveFactor": [
        0,
        0,
        0
      ],
      "name": "base",
      "pbrMetallicRoughness": {
        "baseColorFactor": [
          1,
          1,
          1,
          1
        ],
        "baseColorTexture": {
          "index": 0,
          "texCoord": 0
        },
        "metallicFactor": 0,
        "roughnessFactor": 0.51391006100000003
      }
    },
    {
      "doubleSided": true,
      "emissiveFactor": [
        0,
        0,
        0
      ],
      "name": "black",
      "pbrMetallicRoughness": {
        "baseColorFactor": [
          0.0102997008,
          0.0102997008,
          0.0102997008,
          1
        ],
        "metallicFactor": 0,
        "roughnessFactor": 0.2822027439
      }
    },
    {
      "doubleSided": true,
      "emissiveFactor": [
        0,
        0,
        0
      ],
      "name": "gray",
      "pbrMetallicRoughness": {
        "baseColorFactor": [
          0.12554694620000001,
          0.12554694620000001,
          0.12554694620000001,
          1
        ],
        "metallicFactor": 0,
        "roughnessFactor": 0.47732469509999997
      }
    },
    {
      "doubleSided": true,
      "emissiveFactor": [
        0,
        0,
        0
      ],
      "name": "material",
      "pbrMetallicRoughness": {
        "baseColorFactor": [
          1,
          1,
          1,
          1
        ],
        "baseColorTexture": {
          "index": 2,
          "texCoord": 0
        },
        "metallicFactor": 0,
        "roughnessFactor": 0.34927591460000001
      }
    },
    {
      "doubleSided": true,
      "emissiveFactor": [
        1,
        1,
        1
      ],
      "name": "screen",
      "pbrMetallicRoughness": {
        "baseColorFactor": [
          1,
          1,
          1,
          1
        ],
        "metallicFactor": 0,
        "roughnessFactor": 0.59999999999999998
      }
    },
    {
      "doubleSided": true,
      "emissiveFactor": [
        0,
        0,
        0
      ],
      "name": "strap",
      "pbrMetallicRoughness": {
        "baseColorFactor": [
          1,
          1,
          1,
          1
        ],
        "baseColorTexture": {
          "index": 1,
          "texCoord": 0
        },
        "metallicFactor": 0,
        "roughnessFactor": 0.48951981709999998
      }
    },
    {
      "doubleSided": true,
      "emissiveFactor": [
        0,
        0,
        0
      ],
      "name": "white",
      "pbrMetallicRoughness": {
        "baseColorFactor": [
          0.68317165769999999,
          0.66962754629999999,
          0.66962754629999999,
          1
        ],
        "metallicFactor": 0,
        "roughnessFactor": 0.45903201220000001
      }
    }
  ],
  "meshes": [
    {
      "primitives": [
        {
          "attributes": {
            "NORMAL": 1,
            "POSITION": 0,
            "TANGENT": 2,
            "TEXCOORD_0": 3
          },
          "indices": 4,
          "material": 0,
          "mode": 4
        }
      ]
    },
    {
      "primitives": [
        {
          "attributes": {
            "NORMAL": 6,
            "POSITION": 5,
            "TANGENT": 7
          },
          "indices": 8,
          "material": 1,
          "mode": 4
        }
      ]
    },
    {
      "primitives": [
        {
          "attributes": {
            "NORMAL": 10,
            "POSITION": 9,
            "TANGENT": 11
          },
          "indices": 12,
          "material": 2,
          "mode": 4
        }
      ]
    },
    {
      "primitives": [
        {
          "attributes": {
            "NORMAL": 14,
            "POSITION": 13,
            "TANGENT": 15
          },
          "indices": 16,
          "material": 2,
          "mode": 4
        }
      ]
    },
    {
      "primitives": [
        {
          "attributes": {
            "NORMAL": 18,
            "POSITION": 17,
            "TANGENT": 19,
            "TEXCOORD_0": 20
          },
          "indices": 21,
          "material": 3,
          "mode": 4
        }
      ]
    },
    {
      "primitives": [
        {
          "attributes": {
            "NORMAL": 23,
            "POSITION": 22,
            "TANGENT": 24
          },
          "indices": 25,
          "material": 4,
          "mode": 4
        }
      ]
    },
    {
      "primitives": [
        {
          "attributes": {
            "NORMAL": 27,
            "POSITION": 26,
            "TANGENT": 28,
            "TEXCOORD_0": 29
          },
          "indices": 30,
          "material": 5,
          "mode": 4
        }
      ]
    },
    {
      "primitives": [
        {
          "attributes": {
            "NORMAL": 32,
            "POSITION": 31,
            "TANGENT": 33
          },
          "indices": 34,
          "material": 6,
          "mode": 4
        }
      ]
    }
  ],
  "nodes": [
    {
      "children": [
        1
      ],
      "name": "RootNode (gltf orientation matrix)",
      "rotation": [
        -0.70710678118654746,
        -0,
        -0,
        0.70710678118654757
      ]
    },
    {
      "children": [
        2
      ],
      "name": "RootNode (model correction matrix)"
    },
    {
      "children": [
        3
      ],
      "matrix": [
        1,
        0,
        0,
        0,
        0,
        1,
        0,
        0,
        0,
        0,
        1,
        0,
        -2.5986640453338623,
        -2.7619640827178955,
        -1.3780490159988403,
        1
      ],
      "name": "daydream.obj.cleaner.gles"
    },
    {
      "children": [
        4,
        5,
        6,
        7,
        8,
        9,
        10,
        11
      ],
      "name": ""
    },
    {
      "mesh": 0,
      "name": ""
    },
    {
      "mesh": 1,
      "name": ""
    },
    {
      "mesh": 2,
      "name": ""
    },
    {
      "mesh": 3,
      "name": ""
    },
    {
      "mesh": 4,
      "name": ""
    },
    {
      "mesh": 5,
      "name": ""
    },
    {
      "mesh": 6,
      "name": ""
    },
    {
      "mesh": 7,
      "name": ""
    }
  ],
  "samplers": [
    {
      "magFilter": 9729,
      "minFilter": 9987,
      "wrapS": 10497,
      "wrapT": 10497
    }
  ],
  "scene": 0,
  "scenes": [
    {
      "name": "OSG_Scene",
      "nodes": [
        0
      ]
    }
  ],
  "textures": [
    {
      "sampler": 0,
      "source": 0
    },
    {
      "sampler": 0,
      "source": 1
    },
    {
      "sampler": 0,
      "source": 2
    }
  ]
}

